<svg width="50" height="50" viewBox="0 0 50 50" fill="none" xmlns="http://www.w3.org/2000/svg">
<rect width="50" height="50" rx="25" fill="white"/>
<path d="M31.2175 20.2779C32.0128 20.2779 32.6575 19.6332 32.6575 18.8379C32.6575 18.0427 32.0128 17.3979 31.2175 17.3979C30.4222 17.3979 29.7775 18.0427 29.7775 18.8379C29.7775 19.6332 30.4222 20.2779 31.2175 20.2779Z" fill="black" fill-opacity="0.87"/>
<path fill-rule="evenodd" clip-rule="evenodd" d="M19 25C19 28.309 21.691 31 25 31C28.309 31 31 28.309 31 25C31 21.691 28.309 19 25 19C21.691 19 19 21.691 19 25ZM22 25C22 23.3455 23.3455 22 25 22C26.6545 22 28 23.3455 28 25C28 26.6545 26.6545 28 25 28C23.3455 28 22 26.6545 22 25Z" fill="black" fill-opacity="0.87"/>
<path fill-rule="evenodd" clip-rule="evenodd" d="M19 37H31C34.084 37 37 34.084 37 31V19C37 15.916 34.084 13 31 13H19C15.916 13 13 15.916 13 19V31C13 34.084 15.916 37 19 37ZM16 19C16 17.5975 17.5975 16 19 16H31C32.4025 16 34 17.5975 34 19V31C34 32.4025 32.4025 34 31 34H19C17.5705 34 16 32.4295 16 31V19Z" fill="black" fill-opacity="0.87"/>
</svg>
