<svg width="50" height="50" viewBox="0 0 50 50" fill="none" xmlns="http://www.w3.org/2000/svg">
<rect width="50" height="50" rx="25" fill="white"/>
<path d="M37 17.2669C36.1 17.7203 35.2 17.8714 34.15 18.0225C35.2 17.418 35.95 16.5113 36.25 15.3023C35.35 15.9068 34.3 16.209 33.1 16.5113C32.2 15.6045 30.85 15 29.5 15C26.95 15 24.7 17.2669 24.7 19.9872C24.7 20.4406 24.7 20.7428 24.85 21.0451C20.8 20.8939 17.05 18.9293 14.65 15.9068C14.2 16.6624 14.05 17.418 14.05 18.4759C14.05 20.1383 14.95 21.6496 16.3 22.5563C15.55 22.5563 14.8 22.2541 14.05 21.9518C14.05 24.3699 15.7 26.3345 17.95 26.7879C17.5 26.939 17.05 26.939 16.6 26.939C16.3 26.939 16 26.939 15.7 26.7879C16.3 28.7525 18.1 30.2638 20.35 30.2638C18.7 31.6239 16.6 32.3796 14.2 32.3796C13.75 32.3796 13.45 32.3796 13 32.3796C15.25 33.7397 17.8 34.6465 20.5 34.6465C29.5 34.6465 34.45 27.0901 34.45 20.5917C34.45 20.4406 34.45 20.1383 34.45 19.9872C35.5 19.2315 36.4 18.3248 37 17.2669Z" fill="black" fill-opacity="0.87"/>
</svg>
